<svg xmlns="http://www.w3.org/2000/svg" width="82" height="26" viewBox="0 0 82 26" fill="none"><metadata><rdf:RDF xmlns:rdf="http://www.w3.org/1999/02/22-rdf-syntax-ns#" xmlns:dc="http://purl.org/dc/elements/1.1/"><rdf:Description><dc:creator>RealFaviconGenerator</dc:creator><dc:source>https://realfavicongenerator.net</dc:source></rdf:Description></rdf:RDF></metadata><path d="M56.4082 5.63965C57.3521 5.63965 58.1759 5.83188 58.8799 6.21582C59.5998 6.5998 60.1521 7.10358 60.5361 7.72754V5.83203H64.6406V19.1992C64.6406 20.431 64.3923 21.5433 63.8965 22.5352C63.4165 23.5432 62.6721 24.3435 61.6641 24.9355C60.6721 25.5275 59.4322 25.8232 57.9443 25.8232C55.9603 25.8232 54.3521 25.3512 53.1201 24.4072C51.8883 23.4792 51.1838 22.2151 51.0078 20.6152H55.0645C55.1925 21.1272 55.4966 21.5274 55.9766 21.8154C56.4565 22.1193 57.0481 22.2715 57.752 22.2715C58.6 22.2715 59.2726 22.0233 59.7686 21.5273C60.2803 21.0473 60.5361 20.271 60.5361 19.1992V17.3037C60.1361 17.9277 59.5839 18.4399 58.8799 18.8398C58.176 19.2237 57.3521 19.416 56.4082 19.416C55.3042 19.416 54.3042 19.1352 53.4082 18.5752C52.5123 17.9992 51.8004 17.1913 51.2725 16.1514C50.7605 15.0955 50.5039 13.8797 50.5039 12.5039C50.5039 11.1279 50.7605 9.91986 51.2725 8.87988C51.8005 7.83988 52.5122 7.03949 53.4082 6.47949C54.3042 5.91952 55.3042 5.63965 56.4082 5.63965ZM6.71973 5.63965C8.39973 5.63965 9.79992 6.07996 10.9199 6.95996C12.0559 7.83996 12.8003 9.0797 13.1523 10.6797H8.78418C8.41622 9.65579 7.70427 9.14366 6.64844 9.14355C5.89645 9.14355 5.29566 9.43926 4.84766 10.0312C4.3997 10.6072 4.17582 11.4395 4.17578 12.5273C4.17578 13.6153 4.3997 14.4559 4.84766 15.0479C5.29566 15.6239 5.89644 15.9121 6.64844 15.9121C7.70417 15.912 8.41619 15.3997 8.78418 14.376H13.1523C12.8003 15.9438 12.0558 17.1753 10.9199 18.0713C9.78392 18.9673 8.38373 19.416 6.71973 19.416C5.40789 19.416 4.23972 19.1351 3.21582 18.5752C2.20802 18.0152 1.41576 17.2156 0.839844 16.1758C0.279845 15.1358 0 13.9193 0 12.5273C3.87112e-05 11.1356 0.279994 9.91974 0.839844 8.87988C1.41581 7.83994 2.2079 7.03949 3.21582 6.47949C4.23972 5.91955 5.40789 5.63971 6.71973 5.63965ZM30.2979 5.63965C31.5937 5.6397 32.746 5.9121 33.7539 6.45605C34.7616 6.99998 35.5456 7.77553 36.1055 8.7832C36.6815 9.79118 36.9697 10.9676 36.9697 12.3115C36.9697 12.6955 36.9455 13.0957 36.8975 13.5117H27.6094C27.6734 14.3436 27.9374 14.9837 28.4014 15.4316C28.8813 15.8636 29.4654 16.08 30.1533 16.0801C31.1773 16.0801 31.8891 15.6472 32.2891 14.7832H36.6572C36.4333 15.6631 36.0255 16.4553 35.4336 17.1592C34.8576 17.8632 34.129 18.4154 33.249 18.8154C32.3692 19.2153 31.3856 19.416 30.2979 19.416C28.9859 19.416 27.8179 19.1351 26.7939 18.5752C25.77 18.0152 24.9695 17.2157 24.3936 16.1758C23.8176 15.1358 23.5293 13.9193 23.5293 12.5273C23.5293 11.1356 23.8093 9.91973 24.3691 8.87988C24.9451 7.83988 25.7455 7.03949 26.7695 6.47949C27.7935 5.91952 28.9699 5.63965 30.2979 5.63965ZM74.7129 5.63965C76.0249 5.63965 77.2096 5.91949 78.2656 6.47949C79.3215 7.03948 80.1538 7.84741 80.7617 8.90332C81.3697 9.94325 81.6728 11.1515 81.6729 12.5273C81.6729 13.9033 81.3613 15.1198 80.7373 16.1758C80.1293 17.2157 79.2888 18.0152 78.2168 18.5752C77.1608 19.1351 75.977 19.416 74.665 19.416C73.3531 19.416 72.1692 19.1352 71.1133 18.5752C70.0734 18.0152 69.2496 17.2156 68.6416 16.1758C68.0496 15.1358 67.7529 13.9193 67.7529 12.5273C67.753 11.1515 68.0571 9.94325 68.665 8.90332C69.273 7.8474 70.1052 7.03947 71.1611 6.47949C72.217 5.91954 73.401 5.6397 74.7129 5.63965ZM20.4111 19.2236H16.3076V5.83203H20.4111V19.2236ZM48.3984 10.0312H47.2705C46.2465 10.0313 45.4788 10.2561 44.9668 10.7041C44.4549 11.1361 44.1982 11.9039 44.1982 13.0078V19.2236H40.0947V5.83203H44.1982V8.06348C44.6782 7.32748 45.279 6.75194 45.999 6.33594C46.7189 5.90404 47.5186 5.68752 48.3984 5.6875V10.0312ZM74.7129 9.19141C73.9131 9.19149 73.2496 9.47988 72.7217 10.0557C72.1937 10.6156 71.9297 11.4395 71.9297 12.5273C71.9297 13.5993 72.1853 14.424 72.6973 15C73.2252 15.5758 73.8812 15.8632 74.665 15.8633C75.4489 15.8633 76.1133 15.5759 76.6572 15C77.2172 14.424 77.4971 13.5993 77.4971 12.5273C77.497 11.4556 77.2255 10.6316 76.6816 10.0557C76.1536 9.47966 75.4969 9.19141 74.7129 9.19141ZM57.6084 9.21582C56.7925 9.21582 56.0965 9.51166 55.5205 10.1035C54.9605 10.6795 54.6807 11.4799 54.6807 12.5039C54.6807 13.5277 54.9606 14.3432 55.5205 14.9512C56.0965 15.5432 56.7924 15.8398 57.6084 15.8398C58.4243 15.8398 59.1119 15.5431 59.6719 14.9512C60.2478 14.3592 60.5361 13.5513 60.5361 12.5273C60.5361 11.5035 60.2478 10.6955 59.6719 10.1035C59.112 9.51171 58.4242 9.21587 57.6084 9.21582ZM30.249 8.92773C29.5612 8.92783 28.977 9.12744 28.4971 9.52734C28.0332 9.9273 27.7458 10.4956 27.6338 11.2314H32.7695C32.7695 10.5276 32.5296 9.9677 32.0498 9.55176C31.5698 9.13576 30.969 8.92773 30.249 8.92773ZM18.3711 0C19.0751 0 19.6516 0.215461 20.0996 0.647461C20.5635 1.06341 20.7949 1.59155 20.7949 2.23145C20.7949 2.85534 20.5635 3.38347 20.0996 3.81543C19.6516 4.23143 19.0751 4.43945 18.3711 4.43945C17.6513 4.4394 17.0596 4.23133 16.5957 3.81543C16.1477 3.38343 15.9238 2.85544 15.9238 2.23145C15.9239 1.59153 16.1477 1.06342 16.5957 0.647461C17.0596 0.215679 17.6514 5.6256e-05 18.3711 0Z" fill="#7135AD"></path></svg>